# xmcd
#
# Track frame offsets:
#	150
#	19670
#	46467
#	62997
#	91667
#	126751
#	157693
#	178995
#	203932
#	235263
#
# Disc length: 3273 seconds
#
# Revision: 0
# Processed by: cddbd v1.5.2PL0 Copyright (c) Steve Scherf et al.
# Submitted via: audiograbber 1.83.01
#
DISCID=7f0cc70a
DTITLE=Kitaro - Thinking Of You [remastered 2014]
DYEAR=1999
DGENRE=Electronic
TTITLE0=Estrella
TTITLE1=Mercury
TTITLE2=Cosmic Wave
TTITLE3=Harmony Of The Forest
TTITLE4=Fiesta
TTITLE5=Thinking Of You
TTITLE6=Spirit Of Water
TTITLE7=Stream
TTITLE8=Space II
TTITLE9=Del Mar
EXTD=
EXTT0=
EXTT1=
EXTT2=
EXTT3=
EXTT4=
EXTT5=
EXTT6=
EXTT7=
EXTT8=
EXTT9=
PLAYORDER=
